HIERARCHY
ROOT Hips
{
	OFFSET 0.000000 71.427986 0.000000
	CHANNELS 6 Xposition Yposition Zposition Xrotation Yrotation Zrotation
	JOINT Pelvis
	{
		OFFSET 0.000000 0.000000 0.000000
		CHANNELS 3 Xrotation Yrotation Zrotation
		JOINT LeftUpLeg
		{
			OFFSET 6.797100 -2.508499 -1.318700
			CHANNELS 3 Xrotation Yrotation Zrotation
			JOINT LeftLeg
			{
				OFFSET 0.069008 -29.241863 0.690200
				CHANNELS 3 Xrotation Yrotation Zrotation
				JOINT LeftFoot
				{
					OFFSET -0.069008 -29.568123 -0.266800
					CHANNELS 3 Xrotation Yrotation Zrotation
					JOINT LeftToeBase
					{
						OFFSET 3.145500 -8.631000 16.059900
						CHANNELS 3 Xrotation Yrotation Zrotation
						End Site
						{
							OFFSET 0.000000 18.501587 0.000000
						}
					}
				}
			}
			JOINT Left_ShortSleeve
			{
				OFFSET 0.265923 -10.480953 1.153800
				CHANNELS 3 Xrotation Yrotation Zrotation
				End Site
				{
					OFFSET 1.725763 19.823879 0.000000
				}
			}
		}
		JOINT RightUpLeg
		{
			OFFSET -6.797100 -2.508499 -1.318700
			CHANNELS 3 Xrotation Yrotation Zrotation
			JOINT RightLeg
			{
				OFFSET -0.082453 -29.241932 0.688000
				CHANNELS 3 Xrotation Yrotation Zrotation
				JOINT RightFoot
				{
					OFFSET 0.082453 -29.568058 -0.264600
					CHANNELS 3 Xrotation Yrotation Zrotation
					JOINT RightToeBase
					{
						OFFSET -3.115300 -8.682800 16.113400
						CHANNELS 3 Xrotation Yrotation Zrotation
						End Site
						{
							OFFSET 0.000000 18.567114 0.000000
						}
					}
				}
			}
			JOINT Right_ShortSleeve
			{
				OFFSET -0.265923 -10.480953 1.153800
				CHANNELS 3 Xrotation Yrotation Zrotation
				End Site
				{
					OFFSET -1.725766 19.823910 0.000000
				}
			}
		}
	}
	JOINT Spine
	{
		OFFSET 0.000000 13.368103 0.470500
		CHANNELS 3 Xrotation Yrotation Zrotation
		JOINT Spine1
		{
			OFFSET 0.147000 13.837402 0.538800
			CHANNELS 3 Xrotation Yrotation Zrotation
			JOINT Spine2
			{
				OFFSET 0.168000 16.242897 -1.435500
				CHANNELS 3 Xrotation Yrotation Zrotation
				JOINT Neck
				{
					OFFSET 0.217200 18.631500 -1.679100
					CHANNELS 3 Xrotation Yrotation Zrotation
					JOINT Head
					{
						OFFSET 0.000000 6.599396 1.385900
						CHANNELS 3 Xrotation Yrotation Zrotation
						JOINT Hat
						{
							OFFSET -0.532200 27.220596 -10.096100
							CHANNELS 3 Xrotation Yrotation Zrotation
							End Site
							{
								OFFSET 0.000000 22.029861 0.000000
							}
						}
						JOINT HairD
						{
							OFFSET -10.777400 17.437393 -1.325900
							CHANNELS 3 Xrotation Yrotation Zrotation
							JOINT HairD1
							{
								OFFSET -3.290299 -11.051193 1.062200
								CHANNELS 3 Xrotation Yrotation Zrotation
								End Site
								{
									OFFSET 0.000000 11.579437 0.000000
								}
							}
						}
						JOINT HairB
						{
							OFFSET -10.777400 17.437393 1.467900
							CHANNELS 3 Xrotation Yrotation Zrotation
							JOINT HairB1
							{
								OFFSET -1.561200 -12.956299 3.590200
								CHANNELS 3 Xrotation Yrotation Zrotation
								End Site
								{
									OFFSET 0.000000 13.534866 0.000000
								}
							}
						}
						JOINT HairA
						{
							OFFSET 9.713100 17.437393 1.467900
							CHANNELS 3 Xrotation Yrotation Zrotation
							JOINT HairA1
							{
								OFFSET 1.561200 -12.956299 3.590200
								CHANNELS 3 Xrotation Yrotation Zrotation
								End Site
								{
									OFFSET 0.000000 13.534866 0.000000
								}
							}
						}
						JOINT HairC
						{
							OFFSET 9.713100 17.437393 -1.325900
							CHANNELS 3 Xrotation Yrotation Zrotation
							JOINT HairC1
							{
								OFFSET 3.290300 -11.051193 1.062200
								CHANNELS 3 Xrotation Yrotation Zrotation
								End Site
								{
									OFFSET 0.000000 11.579437 0.000000
								}
							}
						}
					}
				}
				JOINT LeftShoulder
				{
					OFFSET 5.101800 15.108002 -2.763700
					CHANNELS 3 Xrotation Yrotation Zrotation
					JOINT LeftArm
					{
						OFFSET 9.825497 2.506317 -1.597400
						CHANNELS 3 Xrotation Yrotation Zrotation
						JOINT LeftForeArm
						{
							OFFSET 21.966244 0.000000 0.000000
							CHANNELS 3 Xrotation Yrotation Zrotation
							JOINT LeftHand
							{
								OFFSET 33.879036 0.000000 0.000000
								CHANNELS 3 Xrotation Yrotation Zrotation
								JOINT LeftHandThumb1
								{
									OFFSET 6.715286 -2.359680 3.363841
									CHANNELS 3 Xrotation Yrotation Zrotation
									JOINT LeftHandThumb2
									{
										OFFSET 2.507072 -1.447464 1.447461
										CHANNELS 3 Xrotation Yrotation Zrotation
										JOINT LeftHandThumb3
										{
											OFFSET 2.898338 -1.673355 1.673357
											CHANNELS 3 Xrotation Yrotation Zrotation
											End Site
											{
												OFFSET -0.295959 3.727692 -0.131651
											}
										}
									}
								}
								JOINT LeftHandIndex1
								{
									OFFSET 14.190811 -0.254547 3.840278
									CHANNELS 3 Xrotation Yrotation Zrotation
									JOINT LeftHandIndex2
									{
										OFFSET 3.551727 0.000000 -0.000000
										CHANNELS 3 Xrotation Yrotation Zrotation
										JOINT LeftHandIndex3
										{
											OFFSET 2.894196 0.000000 0.000000
											CHANNELS 3 Xrotation Yrotation Zrotation
											End Site
											{
												OFFSET -1.000603 2.690872 0.366626
											}
										}
									}
								}
								JOINT LeftHandMiddle1
								{
									OFFSET 13.776489 0.000000 0.000000
									CHANNELS 3 Xrotation Yrotation Zrotation
									JOINT LeftHandMiddle2
									{
										OFFSET 3.438232 0.000000 0.000000
										CHANNELS 3 Xrotation Yrotation Zrotation
										JOINT LeftHandMiddle3
										{
											OFFSET 3.691551 0.000000 0.000000
											CHANNELS 3 Xrotation Yrotation Zrotation
											End Site
											{
												OFFSET -1.082298 3.499527 0.457670
											}
										}
									}
								}
								JOINT LeftHandRing1
								{
									OFFSET 13.966164 -0.268127 -3.067488
									CHANNELS 3 Xrotation Yrotation Zrotation
									JOINT LeftHandRing2
									{
										OFFSET 3.162567 0.000000 0.000000
										CHANNELS 3 Xrotation Yrotation Zrotation
										JOINT LeftHandRing3
										{
											OFFSET 3.324348 0.000000 0.000000
											CHANNELS 3 Xrotation Yrotation Zrotation
											End Site
											{
												OFFSET -0.861900 3.184998 0.405154
											}
										}
									}
								}
								JOINT LeftHandPinky1
								{
									OFFSET 13.131393 -0.168503 -5.746925
									CHANNELS 3 Xrotation Yrotation Zrotation
									JOINT LeftHandPinky2
									{
										OFFSET 2.849182 0.000000 0.000000
										CHANNELS 3 Xrotation Yrotation Zrotation
										JOINT LeftHandPinky3
										{
											OFFSET 2.805038 0.000000 0.000000
											CHANNELS 3 Xrotation Yrotation Zrotation
											End Site
											{
												OFFSET -0.882500 2.642609 0.325652
											}
										}
									}
								}
							}
							JOINT Left_Sleeve
							{
								OFFSET 6.592125 -0.646545 0.805568
								CHANNELS 3 Xrotation Yrotation Zrotation
								End Site
								{
									OFFSET -0.000179 20.275787 -0.000000
								}
							}
						}
					}
				}
				JOINT RightShoulder
				{
					OFFSET -5.731700 15.108002 -2.763700
					CHANNELS 3 Xrotation Yrotation Zrotation
					JOINT RightArm
					{
						OFFSET -9.825497 2.506317 -1.597400
						CHANNELS 3 Xrotation Yrotation Zrotation
						JOINT RightForeArm
						{
							OFFSET -21.966242 0.000000 0.000000
							CHANNELS 3 Xrotation Yrotation Zrotation
							JOINT RightHand
							{
								OFFSET -33.879032 0.000000 0.000000
								CHANNELS 3 Xrotation Yrotation Zrotation
								JOINT RightHandThumb1
								{
									OFFSET -6.715286 -2.359680 3.363841
									CHANNELS 3 Xrotation Yrotation Zrotation
									JOINT RightHandThumb2
									{
										OFFSET -2.507072 -1.447464 1.447461
										CHANNELS 3 Xrotation Yrotation Zrotation
										JOINT RightHandThumb3
										{
											OFFSET -2.898338 -1.673355 1.673357
											CHANNELS 3 Xrotation Yrotation Zrotation
											End Site
											{
												OFFSET 0.295959 3.727692 -0.131651
											}
										}
									}
								}
								JOINT RightHandIndex1
								{
									OFFSET -14.190811 -0.254547 3.840278
									CHANNELS 3 Xrotation Yrotation Zrotation
									JOINT RightHandIndex2
									{
										OFFSET -3.551727 0.000000 -0.000000
										CHANNELS 3 Xrotation Yrotation Zrotation
										JOINT RightHandIndex3
										{
											OFFSET -2.894196 0.000000 0.000000
											CHANNELS 3 Xrotation Yrotation Zrotation
											End Site
											{
												OFFSET 1.000603 2.690872 0.366626
											}
										}
									}
								}
								JOINT RightHandMiddle1
								{
									OFFSET -13.776489 0.000000 0.000000
									CHANNELS 3 Xrotation Yrotation Zrotation
									JOINT RightHandMiddle2
									{
										OFFSET -3.438232 0.000000 0.000000
										CHANNELS 3 Xrotation Yrotation Zrotation
										JOINT RightHandMiddle3
										{
											OFFSET -3.691551 0.000000 0.000000
											CHANNELS 3 Xrotation Yrotation Zrotation
											End Site
											{
												OFFSET 1.082298 3.499527 0.457670
											}
										}
									}
								}
								JOINT RightHandRing1
								{
									OFFSET -13.966164 -0.268127 -3.067488
									CHANNELS 3 Xrotation Yrotation Zrotation
									JOINT RightHandRing2
									{
										OFFSET -3.162567 0.000000 0.000000
										CHANNELS 3 Xrotation Yrotation Zrotation
										JOINT RightHandRing3
										{
											OFFSET -3.324348 0.000000 0.000000
											CHANNELS 3 Xrotation Yrotation Zrotation
											End Site
											{
												OFFSET 0.861900 3.184998 0.405154
											}
										}
									}
								}
								JOINT RightHandPinky1
								{
									OFFSET -13.131393 -0.168503 -5.746925
									CHANNELS 3 Xrotation Yrotation Zrotation
									JOINT RightHandPinky2
									{
										OFFSET -2.849182 0.000000 0.000000
										CHANNELS 3 Xrotation Yrotation Zrotation
										JOINT RightHandPinky3
										{
											OFFSET -2.805038 0.000000 0.000000
											CHANNELS 3 Xrotation Yrotation Zrotation
											End Site
											{
												OFFSET 0.882500 2.642609 0.325652
											}
										}
									}
								}
							}
							JOINT Right_Sleeve
							{
								OFFSET -6.592125 -0.646545 0.805568
								CHANNELS 3 Xrotation Yrotation Zrotation
								End Site
								{
									OFFSET 0.000179 20.275787 -0.000000
								}
							}
						}
					}
				}
				JOINT Bind_Right_JacketString
				{
					OFFSET -3.534800 11.969597 7.200700
					CHANNELS 3 Xrotation Yrotation Zrotation
					JOINT Bind_Right_JacketString1
					{
						OFFSET -0.319900 -6.102600 2.794100
						CHANNELS 3 Xrotation Yrotation Zrotation
						End Site
						{
							OFFSET 0.000000 6.719452 0.000000
						}
					}
				}
				JOINT Bind_Left_JacketString
				{
					OFFSET 2.904800 11.969597 7.200700
					CHANNELS 3 Xrotation Yrotation Zrotation
					JOINT Bind_Left_JacketString1
					{
						OFFSET 0.364800 -5.904503 3.186800
						CHANNELS 3 Xrotation Yrotation Zrotation
						End Site
						{
							OFFSET 0.000000 6.719513 0.000000
						}
					}
				}
				JOINT HairE
				{
					OFFSET 5.915200 17.612701 -11.592200
					CHANNELS 3 Xrotation Yrotation Zrotation
					JOINT HairE1
					{
						OFFSET 0.289200 -7.171898 -1.284500
						CHANNELS 3 Xrotation Yrotation Zrotation
						End Site
						{
							OFFSET 0.000000 7.291756 0.000000
						}
					}
				}
				JOINT HairF
				{
					OFFSET -0.864800 17.612701 -11.592200
					CHANNELS 3 Xrotation Yrotation Zrotation
					JOINT HairF1
					{
						OFFSET 0.000000 -14.087097 -2.127501
						CHANNELS 3 Xrotation Yrotation Zrotation
						End Site
						{
							OFFSET 0.000000 14.246841 0.000000
						}
					}
				}
				JOINT HairG
				{
					OFFSET -8.087700 17.612701 -11.592200
					CHANNELS 3 Xrotation Yrotation Zrotation
					JOINT HairG1
					{
						OFFSET -0.293600 -6.081398 -0.910100
						CHANNELS 3 Xrotation Yrotation Zrotation
						End Site
						{
							OFFSET 0.000000 6.156120 0.000000
						}
					}
				}
			}
		}
	}
	JOINT Pouch
	{
		OFFSET 0.000000 4.394501 10.847300
		CHANNELS 3 Xrotation Yrotation Zrotation
		End Site
		{
			OFFSET 0.000000 21.880577 0.000000
		}
	}
	JOINT Bag
	{
		OFFSET -13.229000 4.813004 -0.593300
		CHANNELS 3 Xrotation Yrotation Zrotation
		End Site
		{
			OFFSET 0.000000 21.880577 0.000000
		}
	}
	JOINT OccupyGuyFacialAnim_Joint
	{
		OFFSET 1.000000 -70.206398 -1.655000
		CHANNELS 3 Xrotation Yrotation Zrotation
		End Site
		{
			OFFSET 0.000000 21.880577 0.000000
		}
	}
}
MOTION
Frames: 4
Frame Time: 0.016667
-0.737691 60.645111 0.760035 11.682574 -49.446396 11.201365 -0.000000 -0.000001 -0.000000 -62.355071 29.780895 41.562217 46.272131 -20.448533 3.240149 -1.174660 1.237433 -9.131366 -0.000000 0.000000 -0.000000 0.000001 0.000000 -0.000000 -32.413861 -1.686800 -23.577000 54.931229 2.258154 -6.882812 -30.000329 -3.201854 23.245307 0.000000 0.000000 0.000000 -0.000001 0.000001 0.000001 10.966630 2.808522 -1.964493 6.100708 5.566546 -4.284699 -5.786926 6.328135 -3.046186 2.317274 9.363503 -0.265712 -4.145191 23.161798 -3.522660 0.000000 -0.000000 0.000000 0.000000 -0.000000 0.000000 0.000000 -0.000000 -0.000000 0.000000 -0.000000 0.000000 0.000000 -0.000000 0.000000 0.000000 -0.000000 0.000000 0.000000 -0.000000 0.000000 0.000000 -0.000000 0.000000 0.000000 -0.000000 0.000000 -1.915078 -16.511772 -2.939005 -10.486661 2.625049 -45.366328 -22.934653 -26.042285 -16.052451 2.486697 -2.421343 6.911738 18.458445 -9.511653 13.216072 -1.151047 11.255606 -8.390550 0.000001 0.000001 -0.000003 -1.232382 -5.767188 -0.192357 0.133062 -0.208740 -4.601647 0.000000 -0.000002 0.000001 1.879045 4.660587 -4.596709 0.488056 -1.011727 -12.986312 0.000000 0.000001 -0.000003 3.021280 7.938953 -14.102987 -0.721422 -0.564637 -18.895752 0.000002 -0.000000 -0.000002 2.009210 6.305996 -22.386389 -0.833129 -0.206649 -16.746483 -0.000001 0.000001 0.000001 0.000001 -0.000003 0.000002 -5.102372 24.651549 1.530439 6.852342 -35.149960 57.689253 -21.079538 44.888915 20.017010 -0.116031 35.721206 7.538541 55.149580 18.649483 -29.698284 -0.442571 -14.180519 7.313136 -0.000003 -0.000003 0.000000 5.673391 7.585021 36.844175 1.050463 3.824500 68.900237 -0.000002 0.000001 0.000001 -0.125666 1.886089 45.000753 -1.169024 3.204661 68.417636 0.000001 -0.000001 0.000003 -5.312008 1.216672 58.508807 -0.745206 1.667582 48.011292 0.000000 0.000000 0.000001 -7.756832 -9.376461 47.263987 -0.526018 1.541566 45.600518 -0.000003 -0.000000 -0.000001 -0.000001 -0.000000 0.000002 0.000000 -0.000001 -0.000000 0.000002 0.000001 -0.000002 0.000000 -0.000001 -0.000000 0.000000 -0.000001 -0.000000 0.000000 -0.000001 -0.000000 0.000002 0.000001 -0.000001 0.000000 -0.000001 -0.000000 0.000000 -0.000001 -0.000000 0.000000 -0.000001 -0.000000 0.000002 0.000001 -0.000001 -0.000000 -0.000001 -0.000000 -0.000000 -0.000001 -0.000000 -0.000000 -0.000001 -0.000000 
-0.533042 60.721176 0.624024 11.723842 -49.331072 11.019093 -0.000000 0.000000 -0.000000 -62.502856 29.750993 41.477369 45.827885 -20.548281 3.202422 -0.743298 1.261190 -8.989816 0.000000 -0.000002 0.000000 0.000001 0.000000 -0.000000 -32.463527 -1.687547 -23.228013 54.654453 2.014206 -6.974038 -29.737824 -3.364169 23.345780 0.000000 -0.000002 -0.000000 -0.000002 0.000002 -0.000001 10.649070 2.849446 -1.631515 6.270517 5.497057 -4.598449 -5.595391 6.320219 -3.336132 2.640504 9.509902 -0.611378 -4.329308 23.155530 -3.472937 0.000002 -0.000000 0.000000 0.000002 -0.000000 0.000000 0.000002 -0.000000 -0.000000 0.000002 -0.000000 0.000000 -0.000000 0.000000 0.000001 0.000002 -0.000000 0.000000 -0.000000 0.000000 0.000001 0.000002 -0.000000 0.000000 0.000002 -0.000000 0.000000 -1.910394 -16.163889 -3.090428 -12.030256 0.880599 -45.319166 -21.770895 -23.471170 -14.157639 2.477841 -3.270592 5.936777 18.463960 -9.514381 13.212515 -1.112711 11.306109 -8.396358 0.000000 0.000002 0.000000 -1.232413 -5.775701 -0.415000 0.131531 -0.226366 -4.993297 -0.000001 -0.000001 -0.000000 1.878194 4.643282 -4.856693 0.484486 -1.023661 -13.186644 -0.000002 0.000001 -0.000001 3.018628 7.917216 -14.361907 -0.723422 -0.572760 -19.096345 0.000000 -0.000001 -0.000003 2.005591 6.286232 -22.645472 -0.834529 -0.216341 -16.947014 0.000000 0.000001 0.000001 0.000000 -0.000002 0.000002 -5.012403 24.293277 1.216169 6.254674 -34.836468 57.425635 -21.507398 44.701150 20.437188 -0.231533 33.998421 6.851907 55.149580 18.649483 -29.698284 -0.442572 -14.180513 7.313135 0.000001 0.000000 0.000002 5.673390 7.585018 36.844171 1.050464 3.824496 68.900230 -0.000000 0.000000 0.000002 -0.125661 1.886086 45.000749 -1.169023 3.204664 68.417636 -0.000000 -0.000003 0.000002 -5.312005 1.216668 58.508807 -0.745207 1.667583 48.011288 0.000003 0.000001 -0.000004 -7.756828 -9.376461 47.263984 -0.526019 1.541570 45.600518 -0.000000 0.000003 -0.000003 0.000002 -0.000001 0.000002 0.000001 0.000001 -0.000000 0.000001 0.000000 -0.000001 0.000001 0.000001 -0.000000 0.000001 0.000001 -0.000000 0.000001 0.000001 -0.000000 0.000001 0.000000 -0.000001 0.000001 0.000001 -0.000000 0.000001 0.000001 -0.000000 0.000001 0.000001 -0.000000 0.000001 0.000000 -0.000001 -0.000000 0.000000 -0.000000 -0.000000 0.000000 -0.000000 -0.000000 0.000000 -0.000000 
-0.329268 60.799194 0.443780 11.565825 -49.286044 10.921420 -0.000000 0.000002 -0.000000 -62.357728 29.962571 41.248305 45.198135 -20.718458 3.146634 -0.217922 1.394236 -8.899369 0.000000 -0.000002 0.000000 0.000001 0.000000 -0.000001 -32.539011 -1.608772 -23.107855 54.574315 2.050426 -7.066302 -29.601999 -3.544130 23.283107 -0.000000 0.000000 0.000000 -0.000001 -0.000001 -0.000001 10.767364 2.773558 -1.778535 6.253144 5.455821 -4.730129 -5.604864 6.319131 -3.448272 2.918538 9.797425 -0.772799 -4.285430 23.230973 -3.582199 0.000001 0.000000 0.000000 0.000001 0.000000 0.000000 0.000001 0.000000 -0.000000 0.000001 0.000000 -0.000000 -0.000001 0.000000 -0.000000 0.000001 0.000000 -0.000000 -0.000001 0.000000 -0.000000 0.000001 0.000000 0.000000 0.000001 0.000000 0.000000 -1.950320 -16.377045 -3.316426 -12.793731 0.478087 -45.036188 -20.515358 -22.352270 -13.137815 2.462296 -3.387137 5.660588 18.481167 -9.516242 13.200818 -1.002058 11.451890 -8.413319 0.000000 -0.000000 0.000001 -1.232755 -5.800251 -1.059698 0.126482 -0.277068 -6.121587 0.000001 -0.000000 -0.000002 1.875558 4.593690 -5.610081 0.475109 -1.053469 -13.766689 0.000004 -0.000003 0.000000 3.010617 7.854292 -15.112318 -0.730641 -0.599772 -19.676428 0.000001 -0.000003 -0.000001 1.991103 6.229265 -23.395841 -0.839743 -0.247708 -17.526913 0.000000 -0.000006 0.000000 0.000001 -0.000001 -0.000000 -4.920680 23.574265 1.114870 5.639808 -34.678042 56.669659 -22.473119 45.269620 21.754016 0.157410 31.484017 5.855160 55.149580 18.649481 -29.698277 -0.442571 -14.180508 7.313136 0.000002 -0.000005 -0.000000 5.673389 7.585022 36.844175 1.050464 3.824500 68.900230 -0.000003 0.000001 -0.000003 -0.125664 1.886087 45.000749 -1.169023 3.204666 68.417636 0.000003 -0.000001 0.000001 -5.312008 1.216672 58.508807 -0.745208 1.667580 48.011288 0.000000 0.000001 0.000003 -7.756829 -9.376460 47.263984 -0.526018 1.541564 45.600522 0.000002 0.000001 -0.000003 0.000000 -0.000003 -0.000002 0.000001 -0.000003 0.000000 0.000001 0.000001 -0.000001 0.000001 -0.000003 0.000000 0.000001 -0.000003 0.000000 0.000001 -0.000003 0.000000 0.000001 0.000001 -0.000001 0.000001 -0.000003 0.000000 0.000001 -0.000003 0.000000 0.000001 -0.000003 0.000000 0.000001 0.000001 -0.000001 -0.000000 0.000002 -0.000000 -0.000000 0.000002 -0.000000 -0.000000 0.000002 -0.000000 
-0.126335 60.877022 0.231862 11.429309 -49.385574 10.859347 -0.000000 -0.000001 0.000000 -62.155889 30.174519 41.066482 44.509939 -20.861162 3.087588 0.329347 1.611290 -8.883798 -0.000000 0.000002 -0.000000 0.000002 0.000000 -0.000000 -32.821685 -1.685875 -23.090255 54.603387 2.348568 -7.145767 -29.531269 -3.659251 23.069741 0.000000 0.000001 0.000000 0.000001 -0.000001 -0.000002 10.900509 2.662221 -1.931566 6.255483 5.389557 -4.873396 -5.586801 6.304854 -3.562655 3.088684 10.429334 -1.660140 -4.392339 23.236807 -3.332443 -0.000000 -0.000000 -0.000000 -0.000000 -0.000000 -0.000000 -0.000000 -0.000000 -0.000000 -0.000000 -0.000000 -0.000000 -0.000000 -0.000000 -0.000000 -0.000000 -0.000000 -0.000000 -0.000000 -0.000000 -0.000000 -0.000000 -0.000000 -0.000000 -0.000000 -0.000000 -0.000000 -2.019133 -15.755240 -4.014506 -14.105702 -0.623459 -44.437644 -18.714592 -20.851314 -11.947958 2.441570 -3.378186 5.069740 18.508530 -9.519147 13.182174 -0.822721 11.681121 -8.439628 0.000001 0.000002 -0.000001 -1.233343 -5.834160 -2.091538 0.116405 -0.357579 -7.916975 -0.000001 -0.000002 0.000001 1.870204 4.511123 -6.817006 0.462235 -1.098907 -14.694423 -0.000004 -0.000000 -0.000001 2.992157 7.754480 -16.314028 -0.744045 -0.646168 -20.604046 0.000002 0.000001 -0.000002 1.966478 6.138875 -24.598168 -0.848857 -0.297647 -18.454249 -0.000004 0.000000 0.000003 -0.000001 -0.000002 0.000003 -4.713508 23.018402 0.781702 5.134860 -34.583112 56.017031 -23.493885 45.872138 23.282978 0.566492 28.887360 4.638306 55.149580 18.649485 -29.698277 -0.442573 -14.180513 7.313134 -0.000001 -0.000004 0.000000 5.673389 7.585019 36.844178 1.050465 3.824499 68.900230 -0.000001 -0.000001 0.000002 -0.125664 1.886087 45.000749 -1.169024 3.204657 68.417636 -0.000002 0.000001 0.000001 -5.312008 1.216670 58.508807 -0.745205 1.667581 48.011285 0.000002 0.000000 0.000002 -7.756832 -9.376465 47.263987 -0.526017 1.541561 45.600518 0.000001 0.000001 -0.000001 0.000003 -0.000002 0.000002 0.000000 -0.000002 0.000001 0.000000 0.000000 -0.000001 0.000000 -0.000002 -0.000000 0.000000 -0.000002 -0.000000 0.000000 -0.000002 0.000001 0.000000 0.000000 -0.000001 0.000000 -0.000002 -0.000000 0.000000 -0.000002 -0.000000 0.000000 -0.000002 0.000001 0.000000 0.000000 -0.000001 -0.000000 -0.000001 0.000000 -0.000000 -0.000001 0.000000 -0.000000 -0.000001 0.000000 
